<?xml version="1.0" encoding="utf-8"?>
<!-- Generator: Adobe Illustrator 16.0.0, SVG Export Plug-In . SVG Version: 6.00 Build 0)  -->
<!DOCTYPE svg PUBLIC "-//W3C//DTD SVG 1.1//EN" "http://www.w3.org/Graphics/SVG/1.1/DTD/svg11.dtd">
<svg version="1.1" id="Calque_1" xmlns="http://www.w3.org/2000/svg" xmlns:xlink="http://www.w3.org/1999/xlink" x="0px" y="0px"
	 width="120px" height="120px" viewBox="200.5 100.5 120 120" enable-background="new 200.5 100.5 120 120" xml:space="preserve">
<path d="M0.5,125.5c-3.555,0-6.936-0.751-10-2.094v10.631c3.171,0.946,6.525,1.463,10,1.463c19.299,0,35-15.701,35-35
	c0-3.475-0.516-6.829-1.463-10H23.406c1.344,3.064,2.094,6.445,2.094,10C25.5,114.285,14.285,125.5,0.5,125.5z"/>
<path d="M0.5,155.5c-3.416,0-6.755-0.329-10-0.928v10.157c3.261,0.505,6.6,0.771,10,0.771c16.875,0,32.265-6.467,43.831-17.048
	c-1.833-2.905-3.507-5.92-5.004-9.036C29.371,149.35,15.641,155.5,0.5,155.5z"/>
<path d="M65.5,100.5c0-3.4-0.266-6.739-0.771-10H54.572c0.599,3.245,0.928,6.584,0.928,10c0,15.141-6.15,28.871-16.084,38.827
	c3.117,1.497,6.131,3.171,9.036,5.004C59.033,132.765,65.5,117.374,65.5,100.5z"/>
<path d="M75.592,140.271c-0.6,1.126-1.226,2.234-1.872,3.329c1.058-0.645,2.132-1.265,3.217-1.866
	C76.481,141.252,76.031,140.767,75.592,140.271z"/>
<path d="M43.6,173.72c-1.096,0.646-2.203,1.272-3.329,1.871c0.496,0.44,0.981,0.89,1.464,1.346
	C42.336,175.851,42.955,174.777,43.6,173.72z"/>
<path d="M-9.5,184.892v10.083c3.287,0.345,6.623,0.525,10,0.525c12.689,0,24.802-2.507,35.878-7.042
	c1.519-3.983,3.312-7.832,5.356-11.521c-0.482-0.456-0.968-0.905-1.464-1.346C28.395,181.906,14.861,185.5,0.5,185.5
	C-2.885,185.5-6.217,185.278-9.5,184.892z"/>
<path d="M70.803,164.33c4.688-5.16,8.815-10.839,12.291-16.935c-2.183-1.743-4.238-3.636-6.157-5.662
	c-1.085,0.602-2.159,1.222-3.217,1.866c-2.79,4.721-6.02,9.147-9.638,13.227C66.459,159.199,68.701,161.705,70.803,164.33z"/>
<path d="M47.396,183.094c6.096-3.476,11.774-7.603,16.935-12.292c-2.625-2.101-5.131-4.343-7.504-6.72
	c-4.079,3.618-8.506,6.848-13.227,9.638c-0.645,1.058-1.264,2.131-1.865,3.217C43.76,178.855,45.652,180.911,47.396,183.094z"/>
<path d="M41.734,176.937c-2.045,3.689-3.838,7.538-5.356,11.521c3.801-1.556,7.48-3.349,11.018-5.364
	C45.652,180.911,43.76,178.855,41.734,176.937z"/>
<path d="M88.458,136.378c4.535-11.076,7.042-23.188,7.042-35.878c0-3.377-0.181-6.713-0.525-10H84.892
	c0.387,3.282,0.608,6.615,0.608,10c0,14.361-3.594,27.895-9.908,39.771c0.439,0.496,0.89,0.981,1.345,1.463
	C80.626,139.688,84.475,137.896,88.458,136.378z"/>
<path d="M76.937,141.733c1.919,2.026,3.975,3.919,6.157,5.662c2.016-3.537,3.809-7.217,5.364-11.018
	C84.475,137.896,80.626,139.688,76.937,141.733z"/>
<path d="M56.826,164.082c2.373,2.377,4.879,4.619,7.504,6.72c2.259-2.053,4.419-4.213,6.473-6.472
	c-2.102-2.625-4.344-5.131-6.721-7.504C61.811,159.388,59.388,161.811,56.826,164.082z"/>
<path d="M39.327,139.416c1.497,3.116,3.171,6.131,5.004,9.036c1.434-1.313,2.81-2.688,4.121-4.121
	c-2.905-1.833-5.919-3.507-9.036-5.004C39.387,139.356,39.357,139.387,39.327,139.416z"/>
<path d="M25.5,220.5c0,3.555-0.751,6.936-2.094,10h10.631c0.946-3.171,1.463-6.525,1.463-10c0-19.299-15.701-35-35-35
	c-3.475,0-6.829,0.516-10,1.463v10.631c3.064-1.344,6.445-2.094,10-2.094C14.285,195.5,25.5,206.715,25.5,220.5z"/>
<path d="M55.5,220.5c0,3.416-0.329,6.755-0.928,10h10.157c0.505-3.261,0.771-6.6,0.771-10c0-16.875-6.467-32.265-17.048-43.831
	c-2.905,1.833-5.92,3.507-9.036,5.004C49.35,191.629,55.5,205.359,55.5,220.5z"/>
<path d="M0.5,155.5c-3.4,0-6.739,0.266-10,0.771v10.157c3.245-0.599,6.584-0.928,10-0.928c15.141,0,28.871,6.15,38.827,16.084
	c1.497-3.117,3.171-6.131,5.004-9.036C32.765,161.967,17.374,155.5,0.5,155.5z"/>
<path d="M40.271,145.408c1.126,0.6,2.234,1.226,3.329,1.872c-0.645-1.058-1.265-2.132-1.866-3.217
	C41.252,144.519,40.767,144.969,40.271,145.408z"/>
<path d="M73.72,177.4c0.646,1.096,1.272,2.203,1.871,3.329c0.44-0.496,0.89-0.981,1.346-1.464
	C75.851,178.664,74.777,178.045,73.72,177.4z"/>
<path d="M84.892,230.5h10.083c0.345-3.287,0.525-6.623,0.525-10c0-12.689-2.507-24.802-7.042-35.878
	c-3.983-1.519-7.832-3.312-11.521-5.356c-0.456,0.482-0.905,0.968-1.346,1.464c6.315,11.876,9.909,25.409,9.909,39.771
	C85.5,223.885,85.278,227.217,84.892,230.5z"/>
<path d="M64.33,150.197c-5.16-4.688-10.839-8.815-16.935-12.291c-1.743,2.183-3.636,4.238-5.662,6.157
	c0.602,1.085,1.222,2.159,1.866,3.217c4.721,2.79,9.147,6.02,13.227,9.638C59.199,154.541,61.705,152.299,64.33,150.197z"/>
<path d="M83.094,173.604c-3.476-6.096-7.603-11.774-12.292-16.935c-2.101,2.625-4.343,5.131-6.72,7.504
	c3.618,4.079,6.848,8.506,9.638,13.227c1.058,0.645,2.131,1.264,3.217,1.865C78.855,177.24,80.911,175.348,83.094,173.604z"/>
<path d="M76.937,179.266c3.689,2.045,7.538,3.838,11.521,5.356c-1.556-3.801-3.349-7.48-5.364-11.018
	C80.911,175.348,78.855,177.24,76.937,179.266z"/>
<path d="M36.378,132.542C25.302,128.007,13.189,125.5,0.5,125.5c-3.377,0-6.713,0.181-10,0.525v10.083
	c3.282-0.387,6.615-0.608,10-0.608c14.361,0,27.895,3.594,39.771,9.908c0.496-0.439,0.981-0.89,1.463-1.345
	C39.688,140.374,37.896,136.525,36.378,132.542z"/>
<path d="M41.733,144.063c2.026-1.919,3.919-3.975,5.662-6.157c-3.537-2.016-7.217-3.809-11.018-5.364
	C37.896,136.525,39.688,140.374,41.733,144.063z"/>
<path d="M64.082,164.174c2.377-2.373,4.619-4.879,6.72-7.504c-2.053-2.259-4.213-4.419-6.472-6.473
	c-2.625,2.102-5.131,4.344-7.504,6.721C59.388,159.189,61.811,161.612,64.082,164.174z"/>
<path d="M39.416,181.673c3.116-1.497,6.131-3.171,9.036-5.004c-1.313-1.434-2.688-2.81-4.121-4.121
	c-1.833,2.905-3.507,5.919-5.004,9.036C39.356,181.613,39.387,181.643,39.416,181.673z"/>
<path d="M120.5,195.5c3.555,0,6.936,0.751,10,2.094v-10.631c-3.171-0.946-6.525-1.463-10-1.463c-19.299,0-35,15.701-35,35
	c0,3.475,0.516,6.829,1.463,10h10.631c-1.344-3.064-2.094-6.445-2.094-10C95.5,206.715,106.715,195.5,120.5,195.5z"/>
<path d="M120.5,165.5c3.416,0,6.755,0.329,10,0.928v-10.157c-3.261-0.505-6.6-0.771-10-0.771c-16.875,0-32.265,6.467-43.831,17.048
	c1.833,2.905,3.507,5.92,5.004,9.036C91.629,171.65,105.359,165.5,120.5,165.5z"/>
<path d="M55.5,220.5c0,3.4,0.266,6.739,0.771,10h10.157c-0.599-3.245-0.928-6.584-0.928-10c0-15.141,6.15-28.871,16.084-38.827
	c-3.117-1.497-6.131-3.171-9.036-5.004C61.967,188.235,55.5,203.626,55.5,220.5z"/>
<path d="M45.408,180.729c0.6-1.126,1.226-2.234,1.872-3.329c-1.058,0.645-2.132,1.265-3.217,1.866
	C44.519,179.748,44.969,180.233,45.408,180.729z"/>
<path d="M77.4,147.28c1.096-0.646,2.203-1.272,3.329-1.871c-0.496-0.44-0.981-0.89-1.464-1.346
	C78.664,145.149,78.045,146.223,77.4,147.28z"/>
<path d="M130.5,136.108v-10.083c-3.287-0.345-6.623-0.525-10-0.525c-12.689,0-24.802,2.507-35.878,7.042
	c-1.519,3.983-3.312,7.832-5.356,11.521c0.482,0.456,0.968,0.905,1.464,1.346c11.876-6.315,25.409-9.909,39.771-9.909
	C123.885,135.5,127.217,135.722,130.5,136.108z"/>
<path d="M50.197,156.67c-4.688,5.16-8.815,10.839-12.291,16.935c2.183,1.743,4.238,3.636,6.157,5.662
	c1.085-0.602,2.159-1.222,3.217-1.866c2.79-4.721,6.02-9.147,9.638-13.227C54.541,161.801,52.299,159.295,50.197,156.67z"/>
<path d="M73.604,137.906c-6.096,3.476-11.774,7.603-16.935,12.292c2.625,2.101,5.131,4.343,7.504,6.72
	c4.079-3.618,8.506-6.848,13.227-9.638c0.645-1.058,1.264-2.131,1.865-3.217C77.24,142.145,75.348,140.089,73.604,137.906z"/>
<path d="M79.266,144.063c2.045-3.689,3.838-7.538,5.356-11.521c-3.801,1.556-7.48,3.349-11.018,5.364
	C75.348,140.089,77.24,142.145,79.266,144.063z"/>
<path d="M32.542,184.622C28.007,195.698,25.5,207.811,25.5,220.5c0,3.377,0.181,6.713,0.525,10h10.083
	c-0.387-3.282-0.608-6.615-0.608-10c0-14.361,3.594-27.895,9.908-39.771c-0.439-0.496-0.89-0.981-1.345-1.463
	C40.374,181.312,36.525,183.104,32.542,184.622z"/>
<path d="M44.063,179.267c-1.919-2.026-3.975-3.919-6.157-5.662c-2.016,3.537-3.809,7.217-5.364,11.018
	C36.525,183.104,40.374,181.312,44.063,179.267z"/>
<path d="M64.174,156.918c-2.373-2.377-4.879-4.619-7.504-6.72c-2.259,2.053-4.419,4.213-6.473,6.472
	c2.102,2.625,4.344,5.131,6.721,7.504C59.189,161.612,61.612,159.189,64.174,156.918z"/>
<path d="M81.673,181.584c-1.497-3.116-3.171-6.131-5.004-9.036c-1.434,1.313-2.81,2.688-4.121,4.121
	c2.905,1.833,5.919,3.507,9.036,5.004C81.613,181.644,81.643,181.613,81.673,181.584z"/>
<path d="M95.5,100.5c0-3.555,0.751-6.936,2.094-10H86.963c-0.946,3.171-1.463,6.525-1.463,10c0,19.299,15.701,35,35,35
	c3.475,0,6.829-0.516,10-1.463v-10.631c-3.064,1.344-6.445,2.094-10,2.094C106.715,125.5,95.5,114.285,95.5,100.5z"/>
<path d="M65.5,100.5c0-3.416,0.329-6.755,0.928-10H56.271c-0.505,3.261-0.771,6.6-0.771,10c0,16.875,6.467,32.265,17.048,43.831
	c2.905-1.833,5.92-3.507,9.036-5.004C71.65,129.371,65.5,115.641,65.5,100.5z"/>
<path d="M120.5,165.5c3.4,0,6.739-0.266,10-0.771v-10.157c-3.245,0.599-6.584,0.928-10,0.928c-15.141,0-28.871-6.15-38.827-16.084
	c-1.497,3.117-3.171,6.131-5.004,9.036C88.235,159.033,103.626,165.5,120.5,165.5z"/>
<path d="M80.729,175.592c-1.126-0.6-2.234-1.226-3.329-1.872c0.645,1.058,1.265,2.132,1.866,3.217
	C79.748,176.481,80.233,176.031,80.729,175.592z"/>
<path d="M47.28,143.6c-0.646-1.096-1.272-2.203-1.871-3.329c-0.44,0.496-0.89,0.981-1.346,1.464
	C45.149,142.336,46.223,142.955,47.28,143.6z"/>
<path d="M36.108,90.5H26.025c-0.345,3.287-0.525,6.623-0.525,10c0,12.689,2.507,24.802,7.042,35.878
	c3.983,1.519,7.832,3.312,11.521,5.356c0.456-0.482,0.905-0.968,1.346-1.464C39.094,128.395,35.5,114.861,35.5,100.5
	C35.5,97.115,35.722,93.783,36.108,90.5z"/>
<path d="M56.67,170.803c5.16,4.688,10.839,8.815,16.935,12.291c1.743-2.183,3.636-4.238,5.662-6.157
	c-0.602-1.085-1.222-2.159-1.866-3.217c-4.721-2.79-9.147-6.02-13.227-9.638C61.801,166.459,59.295,168.701,56.67,170.803z"/>
<path d="M37.906,147.396c3.476,6.096,7.603,11.774,12.292,16.935c2.101-2.625,4.343-5.131,6.72-7.504
	c-3.618-4.079-6.848-8.506-9.638-13.227c-1.058-0.645-2.131-1.264-3.217-1.865C42.145,143.76,40.089,145.652,37.906,147.396z"/>
<path d="M44.063,141.734c-3.689-2.045-7.538-3.838-11.521-5.356c1.556,3.801,3.349,7.48,5.364,11.018
	C40.089,145.652,42.145,143.76,44.063,141.734z"/>
<path d="M84.622,188.458c11.076,4.535,23.188,7.042,35.878,7.042c3.377,0,6.713-0.181,10-0.525v-10.083
	c-3.282,0.387-6.615,0.608-10,0.608c-14.361,0-27.895-3.594-39.771-9.908c-0.496,0.439-0.981,0.89-1.463,1.345
	C81.312,180.626,83.104,184.475,84.622,188.458z"/>
<path d="M79.267,176.937c-2.026,1.919-3.919,3.975-5.662,6.157c3.537,2.016,7.217,3.809,11.018,5.364
	C83.104,184.475,81.312,180.626,79.267,176.937z"/>
<path d="M56.918,156.826c-2.377,2.373-4.619,4.879-6.72,7.504c2.053,2.259,4.213,4.419,6.472,6.473
	c2.625-2.102,5.131-4.344,7.504-6.721C61.612,161.811,59.189,159.388,56.918,156.826z"/>
<path d="M81.584,139.327c-3.116,1.497-6.131,3.171-9.036,5.004c1.313,1.434,2.688,2.81,4.121,4.121
	c1.833-2.905,3.507-5.919,5.004-9.036C81.644,139.387,81.613,139.357,81.584,139.327z"/>
<path d="M0.5,325.5c-3.555,0-6.936-0.751-10-2.094v10.631c3.171,0.946,6.525,1.463,10,1.463c19.299,0,35-15.701,35-35
	c0-3.475-0.516-6.829-1.463-10H23.406c1.344,3.064,2.094,6.445,2.094,10C25.5,314.285,14.285,325.5,0.5,325.5z"/>
<path d="M0.5,355.5c-3.416,0-6.755-0.329-10-0.928v10.157c3.261,0.505,6.6,0.771,10,0.771c16.875,0,32.265-6.467,43.831-17.048
	c-1.833-2.905-3.507-5.92-5.004-9.036C29.371,349.35,15.641,355.5,0.5,355.5z"/>
<path d="M65.5,300.5c0-3.4-0.266-6.739-0.771-10H54.572c0.599,3.245,0.928,6.584,0.928,10c0,15.141-6.15,28.871-16.084,38.827
	c3.117,1.497,6.131,3.171,9.036,5.004C59.033,332.765,65.5,317.374,65.5,300.5z"/>
<path d="M75.592,340.271c-0.6,1.126-1.226,2.234-1.872,3.329c1.058-0.645,2.132-1.265,3.217-1.866
	C76.481,341.252,76.031,340.767,75.592,340.271z"/>
<path d="M43.6,373.72c-1.096,0.646-2.203,1.272-3.329,1.871c0.496,0.44,0.981,0.89,1.464,1.346
	C42.336,375.851,42.955,374.777,43.6,373.72z"/>
<path d="M-9.5,384.892v10.083c3.287,0.345,6.623,0.525,10,0.525c12.689,0,24.802-2.507,35.878-7.042
	c1.519-3.983,3.312-7.832,5.356-11.521c-0.482-0.456-0.968-0.905-1.464-1.346C28.395,381.906,14.861,385.5,0.5,385.5
	C-2.885,385.5-6.217,385.278-9.5,384.892z"/>
<path d="M70.803,364.33c4.688-5.16,8.815-10.839,12.291-16.935c-2.183-1.743-4.238-3.636-6.157-5.662
	c-1.085,0.602-2.159,1.222-3.217,1.866c-2.79,4.721-6.02,9.147-9.638,13.227C66.459,359.199,68.701,361.705,70.803,364.33z"/>
<path d="M47.396,383.094c6.096-3.476,11.774-7.603,16.935-12.292c-2.625-2.101-5.131-4.343-7.504-6.72
	c-4.079,3.618-8.506,6.848-13.227,9.638c-0.645,1.058-1.264,2.131-1.865,3.217C43.76,378.855,45.652,380.911,47.396,383.094z"/>
<path d="M41.734,376.937c-2.045,3.689-3.838,7.538-5.356,11.521c3.801-1.556,7.48-3.349,11.018-5.364
	C45.652,380.911,43.76,378.855,41.734,376.937z"/>
<path d="M88.458,336.378c4.535-11.076,7.042-23.188,7.042-35.878c0-3.377-0.181-6.713-0.525-10H84.892
	c0.387,3.282,0.608,6.615,0.608,10c0,14.361-3.594,27.895-9.908,39.771c0.439,0.496,0.89,0.981,1.345,1.463
	C80.626,339.688,84.475,337.896,88.458,336.378z"/>
<path d="M76.937,341.733c1.919,2.026,3.975,3.919,6.157,5.662c2.016-3.537,3.809-7.217,5.364-11.018
	C84.475,337.896,80.626,339.688,76.937,341.733z"/>
<path d="M56.826,364.082c2.373,2.377,4.879,4.619,7.504,6.72c2.259-2.053,4.419-4.213,6.473-6.472
	c-2.102-2.625-4.344-5.131-6.721-7.504C61.811,359.388,59.388,361.811,56.826,364.082z"/>
<path d="M39.327,339.416c1.497,3.116,3.171,6.131,5.004,9.036c1.434-1.313,2.81-2.688,4.121-4.121
	c-2.905-1.833-5.919-3.507-9.036-5.004C39.387,339.356,39.357,339.387,39.327,339.416z"/>
<path d="M25.5,420.5c0,3.555-0.751,6.936-2.094,10h10.631c0.946-3.171,1.463-6.525,1.463-10c0-19.299-15.701-35-35-35
	c-3.475,0-6.829,0.516-10,1.463v10.631c3.064-1.344,6.445-2.094,10-2.094C14.285,395.5,25.5,406.715,25.5,420.5z"/>
<path d="M55.5,420.5c0,3.416-0.329,6.755-0.928,10h10.157c0.505-3.261,0.771-6.6,0.771-10c0-16.875-6.467-32.265-17.048-43.831
	c-2.905,1.833-5.92,3.507-9.036,5.004C49.35,391.629,55.5,405.359,55.5,420.5z"/>
<path d="M0.5,355.5c-3.4,0-6.739,0.266-10,0.771v10.157c3.245-0.599,6.584-0.928,10-0.928c15.141,0,28.871,6.15,38.827,16.084
	c1.497-3.117,3.171-6.131,5.004-9.036C32.765,361.967,17.374,355.5,0.5,355.5z"/>
<path d="M40.271,345.408c1.126,0.6,2.234,1.226,3.329,1.872c-0.645-1.058-1.265-2.132-1.866-3.217
	C41.252,344.519,40.767,344.969,40.271,345.408z"/>
<path d="M73.72,377.4c0.646,1.096,1.272,2.203,1.871,3.329c0.44-0.496,0.89-0.981,1.346-1.464
	C75.851,378.664,74.777,378.045,73.72,377.4z"/>
<path d="M84.892,430.5h10.083c0.345-3.287,0.525-6.623,0.525-10c0-12.689-2.507-24.802-7.042-35.878
	c-3.983-1.519-7.832-3.312-11.521-5.356c-0.456,0.482-0.905,0.968-1.346,1.464c6.315,11.876,9.909,25.409,9.909,39.771
	C85.5,423.885,85.278,427.217,84.892,430.5z"/>
<path d="M64.33,350.197c-5.16-4.688-10.839-8.815-16.935-12.291c-1.743,2.183-3.636,4.238-5.662,6.157
	c0.602,1.085,1.222,2.159,1.866,3.217c4.721,2.79,9.147,6.02,13.227,9.638C59.199,354.541,61.705,352.299,64.33,350.197z"/>
<path d="M83.094,373.604c-3.476-6.096-7.603-11.774-12.292-16.935c-2.101,2.625-4.343,5.131-6.72,7.504
	c3.618,4.079,6.848,8.506,9.638,13.227c1.058,0.645,2.131,1.264,3.217,1.865C78.855,377.24,80.911,375.348,83.094,373.604z"/>
<path d="M76.937,379.266c3.689,2.045,7.538,3.838,11.521,5.356c-1.556-3.801-3.349-7.48-5.364-11.018
	C80.911,375.348,78.855,377.24,76.937,379.266z"/>
<path d="M36.378,332.542C25.302,328.007,13.189,325.5,0.5,325.5c-3.377,0-6.713,0.181-10,0.525v10.083
	c3.282-0.387,6.615-0.608,10-0.608c14.361,0,27.895,3.594,39.771,9.908c0.496-0.439,0.981-0.89,1.463-1.345
	C39.688,340.374,37.896,336.525,36.378,332.542z"/>
<path d="M41.733,344.063c2.026-1.919,3.919-3.975,5.662-6.157c-3.537-2.016-7.217-3.809-11.018-5.364
	C37.896,336.525,39.688,340.374,41.733,344.063z"/>
<path d="M64.082,364.174c2.377-2.373,4.619-4.879,6.72-7.504c-2.053-2.259-4.213-4.419-6.472-6.473
	c-2.625,2.102-5.131,4.344-7.504,6.721C59.388,359.189,61.811,361.612,64.082,364.174z"/>
<path d="M39.416,381.673c3.116-1.497,6.131-3.171,9.036-5.004c-1.313-1.434-2.688-2.81-4.121-4.121
	c-1.833,2.905-3.507,5.919-5.004,9.036C39.356,381.613,39.387,381.643,39.416,381.673z"/>
<path d="M120.5,395.5c3.555,0,6.936,0.751,10,2.094v-10.631c-3.171-0.946-6.525-1.463-10-1.463c-19.299,0-35,15.701-35,35
	c0,3.475,0.516,6.829,1.463,10h10.631c-1.344-3.064-2.094-6.445-2.094-10C95.5,406.715,106.715,395.5,120.5,395.5z"/>
<path d="M120.5,365.5c3.416,0,6.755,0.329,10,0.928v-10.157c-3.261-0.505-6.6-0.771-10-0.771c-16.875,0-32.265,6.467-43.831,17.048
	c1.833,2.905,3.507,5.92,5.004,9.036C91.629,371.65,105.359,365.5,120.5,365.5z"/>
<path d="M55.5,420.5c0,3.4,0.266,6.739,0.771,10h10.157c-0.599-3.245-0.928-6.584-0.928-10c0-15.141,6.15-28.871,16.084-38.827
	c-3.117-1.497-6.131-3.171-9.036-5.004C61.967,388.235,55.5,403.626,55.5,420.5z"/>
<path d="M45.408,380.729c0.6-1.126,1.226-2.234,1.872-3.329c-1.058,0.645-2.132,1.265-3.217,1.866
	C44.519,379.748,44.969,380.233,45.408,380.729z"/>
<path d="M77.4,347.28c1.096-0.646,2.203-1.272,3.329-1.871c-0.496-0.44-0.981-0.89-1.464-1.346
	C78.664,345.149,78.045,346.223,77.4,347.28z"/>
<path d="M130.5,336.108v-10.083c-3.287-0.345-6.623-0.525-10-0.525c-12.689,0-24.802,2.507-35.878,7.042
	c-1.519,3.983-3.312,7.832-5.356,11.521c0.482,0.456,0.968,0.905,1.464,1.346c11.876-6.315,25.409-9.909,39.771-9.909
	C123.885,335.5,127.217,335.722,130.5,336.108z"/>
<path d="M50.197,356.67c-4.688,5.16-8.815,10.839-12.291,16.935c2.183,1.743,4.238,3.636,6.157,5.662
	c1.085-0.602,2.159-1.222,3.217-1.866c2.79-4.721,6.02-9.147,9.638-13.227C54.541,361.801,52.299,359.295,50.197,356.67z"/>
<path d="M73.604,337.906c-6.096,3.476-11.774,7.603-16.935,12.292c2.625,2.101,5.131,4.343,7.504,6.72
	c4.079-3.618,8.506-6.848,13.227-9.638c0.645-1.058,1.264-2.131,1.865-3.217C77.24,342.145,75.348,340.089,73.604,337.906z"/>
<path d="M79.266,344.063c2.045-3.689,3.838-7.538,5.356-11.521c-3.801,1.556-7.48,3.349-11.018,5.364
	C75.348,340.089,77.24,342.145,79.266,344.063z"/>
<path d="M32.542,384.622C28.007,395.698,25.5,407.811,25.5,420.5c0,3.377,0.181,6.713,0.525,10h10.083
	c-0.387-3.282-0.608-6.615-0.608-10c0-14.361,3.594-27.895,9.908-39.771c-0.439-0.496-0.89-0.981-1.345-1.463
	C40.374,381.312,36.525,383.104,32.542,384.622z"/>
<path d="M44.063,379.267c-1.919-2.026-3.975-3.919-6.157-5.662c-2.016,3.537-3.809,7.217-5.364,11.018
	C36.525,383.104,40.374,381.312,44.063,379.267z"/>
<path d="M64.174,356.918c-2.373-2.377-4.879-4.619-7.504-6.72c-2.259,2.053-4.419,4.213-6.473,6.472
	c2.102,2.625,4.344,5.131,6.721,7.504C59.189,361.612,61.612,359.189,64.174,356.918z"/>
<path d="M81.673,381.584c-1.497-3.116-3.171-6.131-5.004-9.036c-1.434,1.313-2.81,2.688-4.121,4.121
	c2.905,1.833,5.919,3.507,9.036,5.004C81.613,381.644,81.643,381.613,81.673,381.584z"/>
<path d="M95.5,300.5c0-3.555,0.751-6.936,2.094-10H86.963c-0.946,3.171-1.463,6.525-1.463,10c0,19.299,15.701,35,35,35
	c3.475,0,6.829-0.516,10-1.463v-10.631c-3.064,1.344-6.445,2.094-10,2.094C106.715,325.5,95.5,314.285,95.5,300.5z"/>
<path d="M65.5,300.5c0-3.416,0.329-6.755,0.928-10H56.271c-0.505,3.261-0.771,6.6-0.771,10c0,16.875,6.467,32.265,17.048,43.831
	c2.905-1.833,5.92-3.507,9.036-5.004C71.65,329.371,65.5,315.641,65.5,300.5z"/>
<path d="M120.5,365.5c3.4,0,6.739-0.266,10-0.771v-10.157c-3.245,0.599-6.584,0.928-10,0.928c-15.141,0-28.871-6.15-38.827-16.084
	c-1.497,3.117-3.171,6.131-5.004,9.036C88.235,359.033,103.626,365.5,120.5,365.5z"/>
<path d="M80.729,375.592c-1.126-0.6-2.234-1.226-3.329-1.872c0.645,1.058,1.265,2.132,1.866,3.217
	C79.748,376.481,80.233,376.031,80.729,375.592z"/>
<path d="M47.28,343.6c-0.646-1.096-1.272-2.203-1.871-3.329c-0.44,0.496-0.89,0.981-1.346,1.464
	C45.149,342.336,46.223,342.955,47.28,343.6z"/>
<path d="M36.108,290.5H26.025c-0.345,3.287-0.525,6.623-0.525,10c0,12.689,2.507,24.802,7.042,35.878
	c3.983,1.519,7.832,3.312,11.521,5.356c0.456-0.482,0.905-0.968,1.346-1.464C39.094,328.395,35.5,314.861,35.5,300.5
	C35.5,297.115,35.722,293.783,36.108,290.5z"/>
<path d="M56.67,370.803c5.16,4.688,10.839,8.815,16.935,12.291c1.743-2.183,3.636-4.238,5.662-6.157
	c-0.602-1.085-1.222-2.159-1.866-3.217c-4.721-2.79-9.147-6.02-13.227-9.638C61.801,366.459,59.295,368.701,56.67,370.803z"/>
<path d="M37.906,347.396c3.476,6.096,7.603,11.774,12.292,16.935c2.101-2.625,4.343-5.131,6.72-7.504
	c-3.618-4.079-6.848-8.506-9.638-13.227c-1.058-0.645-2.131-1.264-3.217-1.865C42.145,343.76,40.089,345.652,37.906,347.396z"/>
<path d="M44.063,341.734c-3.689-2.045-7.538-3.838-11.521-5.356c1.556,3.801,3.349,7.48,5.364,11.018
	C40.089,345.652,42.145,343.76,44.063,341.734z"/>
<path d="M84.622,388.458c11.076,4.535,23.188,7.042,35.878,7.042c3.377,0,6.713-0.181,10-0.525v-10.083
	c-3.282,0.387-6.615,0.608-10,0.608c-14.361,0-27.895-3.594-39.771-9.908c-0.496,0.439-0.981,0.89-1.463,1.345
	C81.312,380.626,83.104,384.475,84.622,388.458z"/>
<path d="M79.267,376.937c-2.026,1.919-3.919,3.975-5.662,6.157c3.537,2.016,7.217,3.809,11.018,5.364
	C83.104,384.475,81.312,380.626,79.267,376.937z"/>
<path d="M56.918,356.826c-2.377,2.373-4.619,4.879-6.72,7.504c2.053,2.259,4.213,4.419,6.472,6.473
	c2.625-2.102,5.131-4.344,7.504-6.721C61.612,361.811,59.189,359.388,56.918,356.826z"/>
<path d="M81.584,339.327c-3.116,1.497-6.131,3.171-9.036,5.004c1.313,1.434,2.688,2.81,4.121,4.121
	c1.833-2.905,3.507-5.919,5.004-9.036C81.644,339.387,81.613,339.357,81.584,339.327z"/>
<g>
	<path d="M636.167,100.5c0-3.475-0.516-6.829-1.463-10h-10.631c1.344,3.064,2.094,6.445,2.094,10c0,13.785-11.215,25-25,25
		c-3.555,0-6.936-0.751-10-2.094v10.631c3.17,0.946,6.525,1.463,10,1.463C620.466,135.5,636.167,119.799,636.167,100.5z"/>
	<path d="M644.997,148.452c1.434-1.313,2.811-2.688,4.121-4.121c10.583-11.566,17.05-26.957,17.05-43.831
		c0-3.4-0.266-6.739-0.771-10H655.24c0.598,3.245,0.928,6.584,0.928,10c0,15.141-6.151,28.871-16.085,38.827
		c-0.029,0.029-0.059,0.06-0.09,0.089c-9.955,9.934-23.686,16.084-38.826,16.084c-3.416,0-6.756-0.329-10-0.928v10.157
		c3.26,0.505,6.6,0.771,10,0.771C618.042,165.5,633.431,159.033,644.997,148.452z"/>
	<path d="M693.675,122.12c6.414,8.139,16.351,13.38,27.493,13.38c3.475,0,6.828-0.516,10-1.463v-10.631
		c-3.064,1.344-6.445,2.094-10,2.094c-13.785,0-25-11.215-25-25c0-3.555,0.75-6.936,2.094-10h-2.619h-8.012h-2.072
		c0.387,3.282,0.609,6.615,0.609,10c0,14.361-3.594,27.895-9.908,39.771c-0.6,1.126-1.227,2.234-1.873,3.329
		c-2.789,4.721-6.02,9.147-9.637,13.227c-2.271,2.562-4.695,4.984-7.256,7.256c-4.08,3.618-8.507,6.848-13.228,9.638
		c-1.096,0.646-2.203,1.272-3.33,1.871c-11.875,6.315-25.408,9.909-39.77,9.909c-3.385,0-6.717-0.222-10-0.608v2.071v8.012v2.619
		c3.064-1.344,6.445-2.094,10-2.094c13.785,0,25,11.215,25,25c0,3.555-0.752,6.936-2.094,10h10.631
		c0.945-3.171,1.463-6.525,1.463-10c0-11.143-5.24-21.078-13.379-27.493c4.906-1.147,9.672-2.672,14.256-4.549
		c2.214-0.906,4.381-1.901,6.508-2.966c7.876,9.518,12.616,21.719,12.616,35.008c0,3.416-0.33,6.755-0.928,10h10.156
		c0.506-3.261,0.771-6.6,0.771-10c0-15.079-5.174-28.963-13.824-40.002c4.489-2.881,8.724-6.124,12.654-9.696
		c1-0.909,1.973-1.847,2.934-2.797c2.349,2.98,4.515,6.112,6.455,9.396c0.646,1.096,1.273,2.203,1.871,3.329
		c6.316,11.876,9.91,25.409,9.91,39.771c0,3.385-0.223,6.717-0.609,10h2.072h8.012h2.619c-1.344-3.064-2.094-6.445-2.094-10
		c0-13.785,11.215-25,25-25c3.555,0,6.936,0.751,10,2.094v-2.619v-8.012v-2.071c-3.283,0.387-6.615,0.608-10,0.608
		c-12.521,0-24.413-2.733-35.127-7.619c-0.728-1.444-1.48-2.875-2.279-4.276c-2.637-4.623-5.649-9.005-8.996-13.104
		c2.296-2.812,4.433-5.758,6.399-8.822c11.039,8.648,24.924,13.822,40.003,13.822c3.4,0,6.738-0.266,10-0.771v-10.157
		c-3.246,0.599-6.584,0.928-10,0.928c-13.289,0-25.489-4.74-35.008-12.615c1.063-2.127,2.06-4.294,2.965-6.507
		C691.002,131.793,692.526,127.027,693.675,122.12z M693.675,198.88c-0.649-2.772-1.416-5.5-2.302-8.175
		c2.674,0.887,5.401,1.653,8.174,2.303C697.365,194.727,695.395,196.698,693.675,198.88z"/>
</g>
<path d="M201.835,325.5c-3.555,0-6.936-0.751-10-2.094v10.631c3.17,0.946,6.525,1.463,10,1.463c19.299,0,35-15.701,35-35
	c0-3.475-0.516-6.829-1.463-10h-10.631c1.344,3.064,2.094,6.445,2.094,10C226.835,314.285,215.62,325.5,201.835,325.5z"/>
<path d="M201.835,355.5c-3.416,0-6.756-0.329-10-0.928v10.157c3.26,0.505,6.6,0.771,10,0.771c16.875,0,32.264-6.467,43.83-17.048
	c-1.832-2.905-3.506-5.92-5.004-9.036C230.706,349.35,216.976,355.5,201.835,355.5z"/>
<path d="M266.835,300.5c0-3.4-0.266-6.739-0.771-10h-10.156c0.598,3.245,0.928,6.584,0.928,10c0,15.141-6.15,28.871-16.084,38.827
	c3.117,1.497,6.131,3.171,9.035,5.004C260.368,332.765,266.835,317.374,266.835,300.5z"/>
<path d="M276.927,340.271c-0.6,1.126-1.227,2.234-1.873,3.329c1.059-0.645,2.133-1.265,3.217-1.866
	C277.815,341.252,277.366,340.767,276.927,340.271z"/>
<path d="M244.935,373.72c-1.096,0.646-2.203,1.272-3.33,1.871c0.496,0.44,0.982,0.89,1.465,1.346
	C243.671,375.851,244.29,374.777,244.935,373.72z"/>
<path d="M191.835,384.892v10.083c3.287,0.345,6.623,0.525,10,0.525c12.689,0,24.801-2.507,35.877-7.042
	c1.52-3.983,3.313-7.832,5.357-11.521c-0.482-0.456-0.969-0.905-1.465-1.346c-11.875,6.315-25.408,9.909-39.77,9.909
	C198.45,385.5,195.118,385.278,191.835,384.892z"/>
<path d="M272.138,364.33c4.688-5.16,8.814-10.839,12.291-16.935c-2.184-1.743-4.238-3.636-6.158-5.662
	c-1.084,0.602-2.158,1.222-3.217,1.866c-2.789,4.721-6.02,9.147-9.637,13.227C267.794,359.199,270.036,361.705,272.138,364.33z"/>
<path d="M248.729,383.094c6.096-3.476,11.775-7.603,16.936-12.292c-2.625-2.101-5.131-4.343-7.504-6.72
	c-4.08,3.618-8.506,6.848-13.227,9.638c-0.645,1.058-1.264,2.131-1.865,3.217C245.095,378.855,246.987,380.911,248.729,383.094z"/>
<path d="M243.069,376.937c-2.045,3.689-3.838,7.538-5.357,11.521c3.801-1.556,7.48-3.349,11.018-5.364
	C246.987,380.911,245.095,378.855,243.069,376.937z"/>
<path d="M289.792,336.378c4.535-11.076,7.043-23.188,7.043-35.878c0-3.377-0.182-6.713-0.525-10h-10.084
	c0.387,3.282,0.609,6.615,0.609,10c0,14.361-3.594,27.895-9.908,39.771c0.439,0.496,0.889,0.981,1.344,1.463
	C281.96,339.688,285.81,337.896,289.792,336.378z"/>
<path d="M278.271,341.733c1.92,2.026,3.975,3.919,6.158,5.662c2.016-3.537,3.809-7.217,5.363-11.018
	C285.81,337.896,281.96,339.688,278.271,341.733z"/>
<path d="M258.161,364.082c2.373,2.377,4.879,4.619,7.504,6.72c2.258-2.053,4.418-4.213,6.473-6.472
	c-2.102-2.625-4.344-5.131-6.721-7.504C263.146,359.388,260.722,361.811,258.161,364.082z"/>
<path d="M240.661,339.416c1.498,3.116,3.172,6.131,5.004,9.036c1.434-1.313,2.811-2.688,4.121-4.121
	c-2.904-1.833-5.918-3.507-9.035-5.004C240.722,339.356,240.692,339.387,240.661,339.416z"/>
<path d="M226.835,420.5c0,3.555-0.752,6.936-2.094,10h10.631c0.945-3.171,1.463-6.525,1.463-10c0-19.299-15.701-35-35-35
	c-3.475,0-6.83,0.516-10,1.463v10.631c3.064-1.344,6.445-2.094,10-2.094C215.62,395.5,226.835,406.715,226.835,420.5z"/>
<path d="M256.835,420.5c0,3.416-0.33,6.755-0.928,10h10.156c0.506-3.261,0.771-6.6,0.771-10c0-16.875-6.467-32.265-17.049-43.831
	c-2.904,1.833-5.92,3.507-9.035,5.004C250.685,391.629,256.835,405.359,256.835,420.5z"/>
<path d="M201.835,355.5c-3.4,0-6.74,0.266-10,0.771v10.157c3.244-0.599,6.584-0.928,10-0.928c15.141,0,28.871,6.15,38.826,16.084
	c1.498-3.117,3.172-6.131,5.004-9.036C234.099,361.967,218.708,355.5,201.835,355.5z"/>
<path d="M241.604,345.408c1.127,0.6,2.234,1.226,3.33,1.872c-0.645-1.058-1.266-2.132-1.867-3.217
	C242.587,344.519,242.101,344.969,241.604,345.408z"/>
<path d="M275.054,377.4c0.646,1.096,1.273,2.203,1.871,3.329c0.441-0.496,0.891-0.981,1.346-1.464
	C277.185,378.664,276.112,378.045,275.054,377.4z"/>
<path d="M286.226,430.5h10.084c0.344-3.287,0.525-6.623,0.525-10c0-12.689-2.508-24.802-7.043-35.878
	c-3.982-1.519-7.832-3.312-11.521-5.356c-0.455,0.482-0.904,0.968-1.346,1.464c6.316,11.876,9.91,25.409,9.91,39.771
	C286.835,423.885,286.612,427.217,286.226,430.5z"/>
<path d="M265.665,350.197c-5.16-4.688-10.84-8.815-16.936-12.291c-1.742,2.183-3.635,4.238-5.662,6.157
	c0.602,1.085,1.223,2.159,1.867,3.217c4.721,2.79,9.146,6.02,13.227,9.638C260.534,354.541,263.04,352.299,265.665,350.197z"/>
<path d="M284.429,373.604c-3.477-6.096-7.604-11.774-12.293-16.935c-2.1,2.625-4.342,5.131-6.719,7.504
	c3.617,4.079,6.848,8.506,9.637,13.227c1.059,0.645,2.131,1.264,3.217,1.865C280.19,377.24,282.245,375.348,284.429,373.604z"/>
<path d="M278.271,379.266c3.689,2.045,7.539,3.838,11.521,5.356c-1.555-3.801-3.348-7.48-5.363-11.018
	C282.245,375.348,280.19,377.24,278.271,379.266z"/>
<path d="M237.712,332.542c-11.076-4.535-23.188-7.042-35.877-7.042c-3.377,0-6.713,0.181-10,0.525v10.083
	c3.281-0.387,6.615-0.608,10-0.608c14.361,0,27.895,3.594,39.77,9.908c0.496-0.439,0.982-0.89,1.463-1.345
	C241.022,340.374,239.231,336.525,237.712,332.542z"/>
<path d="M243.067,344.063c2.027-1.919,3.92-3.975,5.662-6.157c-3.537-2.016-7.217-3.809-11.018-5.364
	C239.231,336.525,241.022,340.374,243.067,344.063z"/>
<path d="M265.417,364.174c2.377-2.373,4.619-4.879,6.719-7.504c-2.053-2.259-4.213-4.419-6.471-6.473
	c-2.625,2.102-5.131,4.344-7.504,6.721C260.722,359.189,263.146,361.612,265.417,364.174z"/>
<path d="M240.751,381.673c3.115-1.497,6.131-3.171,9.035-5.004c-1.313-1.434-2.688-2.81-4.121-4.121
	c-1.832,2.905-3.506,5.919-5.004,9.036C240.69,381.613,240.722,381.643,240.751,381.673z"/>
<path d="M321.835,395.5c3.555,0,6.936,0.751,10,2.094v-10.631c-3.172-0.946-6.525-1.463-10-1.463c-19.299,0-35,15.701-35,35
	c0,3.475,0.516,6.829,1.463,10h10.631c-1.344-3.064-2.094-6.445-2.094-10C296.835,406.715,308.05,395.5,321.835,395.5z"/>
<path d="M321.835,365.5c3.416,0,6.754,0.329,10,0.928v-10.157c-3.262-0.505-6.6-0.771-10-0.771
	c-16.875,0-32.266,6.467-43.832,17.048c1.834,2.905,3.508,5.92,5.004,9.036C292.964,371.65,306.694,365.5,321.835,365.5z"/>
<path d="M256.835,420.5c0,3.4,0.266,6.739,0.77,10h10.158c-0.6-3.245-0.928-6.584-0.928-10c0-15.141,6.15-28.871,16.084-38.827
	c-3.117-1.497-6.131-3.171-9.037-5.004C263.302,388.235,256.835,403.626,256.835,420.5z"/>
<path d="M246.743,380.729c0.6-1.126,1.225-2.234,1.871-3.329c-1.057,0.645-2.131,1.265-3.217,1.866
	C245.853,379.748,246.304,380.233,246.743,380.729z"/>
<path d="M278.735,347.28c1.096-0.646,2.203-1.272,3.328-1.871c-0.496-0.44-0.98-0.89-1.463-1.346
	C279.999,345.149,279.38,346.223,278.735,347.28z"/>
<path d="M331.835,336.108v-10.083c-3.287-0.345-6.623-0.525-10-0.525c-12.689,0-24.803,2.507-35.879,7.042
	c-1.518,3.983-3.311,7.832-5.355,11.521c0.482,0.456,0.967,0.905,1.463,1.346c11.877-6.315,25.41-9.909,39.771-9.909
	C325.22,335.5,328.552,335.722,331.835,336.108z"/>
<path d="M251.532,356.67c-4.689,5.16-8.816,10.839-12.291,16.935c2.182,1.743,4.238,3.636,6.156,5.662
	c1.086-0.602,2.16-1.222,3.217-1.866c2.791-4.721,6.02-9.147,9.639-13.227C255.876,361.801,253.634,359.295,251.532,356.67z"/>
<path d="M274.938,337.906c-6.096,3.476-11.773,7.603-16.934,12.292c2.625,2.101,5.131,4.343,7.504,6.72
	c4.078-3.618,8.506-6.848,13.227-9.638c0.645-1.058,1.264-2.131,1.865-3.217C278.575,342.145,276.683,340.089,274.938,337.906z"/>
<path d="M280.601,344.063c2.045-3.689,3.838-7.538,5.355-11.521c-3.801,1.556-7.48,3.349-11.018,5.364
	C276.683,340.089,278.575,342.145,280.601,344.063z"/>
<path d="M233.876,384.622c-4.535,11.076-7.041,23.188-7.041,35.878c0,3.377,0.18,6.713,0.525,10h10.082
	c-0.387-3.282-0.607-6.615-0.607-10c0-14.361,3.594-27.895,9.908-39.771c-0.439-0.496-0.891-0.981-1.346-1.463
	C241.708,381.312,237.86,383.104,233.876,384.622z"/>
<path d="M245.397,379.267c-1.918-2.026-3.975-3.919-6.156-5.662c-2.016,3.537-3.809,7.217-5.365,11.018
	C237.86,383.104,241.708,381.312,245.397,379.267z"/>
<path d="M265.509,356.918c-2.373-2.377-4.879-4.619-7.504-6.72c-2.26,2.053-4.42,4.213-6.473,6.472
	c2.102,2.625,4.344,5.131,6.721,7.504C260.524,361.612,262.946,359.189,265.509,356.918z"/>
<path d="M283.007,381.584c-1.496-3.116-3.17-6.131-5.004-9.036c-1.434,1.313-2.809,2.688-4.121,4.121
	c2.906,1.833,5.92,3.507,9.037,5.004C282.948,381.644,282.978,381.613,283.007,381.584z"/>
<path d="M296.835,300.5c0-3.555,0.75-6.936,2.094-10h-10.631c-0.947,3.171-1.463,6.525-1.463,10c0,19.299,15.701,35,35,35
	c3.475,0,6.828-0.516,10-1.463v-10.631c-3.064,1.344-6.445,2.094-10,2.094C308.05,325.5,296.835,314.285,296.835,300.5z"/>
<path d="M266.835,300.5c0-3.416,0.328-6.755,0.928-10h-10.158c-0.504,3.261-0.77,6.6-0.77,10c0,16.875,6.467,32.265,17.047,43.831
	c2.906-1.833,5.92-3.507,9.037-5.004C272.985,329.371,266.835,315.641,266.835,300.5z"/>
<path d="M321.835,365.5c3.4,0,6.738-0.266,10-0.771v-10.157c-3.246,0.599-6.584,0.928-10,0.928c-15.141,0-28.871-6.15-38.828-16.084
	c-1.496,3.117-3.17,6.131-5.004,9.036C289.569,359.033,304.96,365.5,321.835,365.5z"/>
<path d="M282.063,375.592c-1.125-0.6-2.234-1.226-3.328-1.872c0.645,1.058,1.264,2.132,1.865,3.217
	C281.083,376.481,281.567,376.031,282.063,375.592z"/>
<path d="M248.614,343.6c-0.646-1.096-1.271-2.203-1.871-3.329c-0.439,0.496-0.889,0.981-1.346,1.464
	C246.483,342.336,247.558,342.955,248.614,343.6z"/>
<path d="M237.442,290.5H227.36c-0.346,3.287-0.525,6.623-0.525,10c0,12.689,2.506,24.802,7.041,35.878
	c3.984,1.519,7.832,3.312,11.521,5.356c0.457-0.482,0.906-0.968,1.346-1.464c-6.314-11.876-9.908-25.409-9.908-39.771
	C236.835,297.115,237.056,293.783,237.442,290.5z"/>
<path d="M258.005,370.803c5.16,4.688,10.838,8.815,16.934,12.291c1.744-2.183,3.637-4.238,5.662-6.157
	c-0.602-1.085-1.221-2.159-1.865-3.217c-4.721-2.79-9.148-6.02-13.227-9.638C263.136,366.459,260.63,368.701,258.005,370.803z"/>
<path d="M239.241,347.396c3.475,6.096,7.602,11.774,12.291,16.935c2.102-2.625,4.344-5.131,6.721-7.504
	c-3.619-4.079-6.848-8.506-9.639-13.227c-1.057-0.645-2.131-1.264-3.217-1.865C243.479,343.76,241.423,345.652,239.241,347.396z"/>
<path d="M245.397,341.734c-3.689-2.045-7.537-3.838-11.521-5.356c1.557,3.801,3.35,7.48,5.365,11.018
	C241.423,345.652,243.479,343.76,245.397,341.734z"/>
<path d="M285.956,388.458c11.076,4.535,23.189,7.042,35.879,7.042c3.377,0,6.713-0.181,10-0.525v-10.083
	c-3.283,0.387-6.615,0.608-10,0.608c-14.361,0-27.895-3.594-39.771-9.908c-0.496,0.439-0.98,0.89-1.463,1.345
	C282.646,380.626,284.438,384.475,285.956,388.458z"/>
<path d="M280.601,376.937c-2.025,1.919-3.918,3.975-5.662,6.157c3.537,2.016,7.217,3.809,11.018,5.364
	C284.438,384.475,282.646,380.626,280.601,376.937z"/>
<path d="M258.253,356.826c-2.377,2.373-4.619,4.879-6.721,7.504c2.053,2.259,4.213,4.419,6.473,6.473
	c2.625-2.102,5.131-4.344,7.504-6.721C262.946,361.811,260.524,359.388,258.253,356.826z"/>
<path d="M282.919,339.327c-3.117,1.497-6.131,3.171-9.037,5.004c1.313,1.434,2.688,2.81,4.121,4.121
	c1.834-2.905,3.508-5.919,5.004-9.036C282.978,339.387,282.948,339.357,282.919,339.327z"/>
<path d="M401.835,325.5c-3.555,0-6.936-0.751-10-2.094v10.631c3.17,0.946,6.525,1.463,10,1.463c19.299,0,35-15.701,35-35
	c0-3.475-0.516-6.829-1.463-10h-10.631c1.344,3.064,2.094,6.445,2.094,10C426.835,314.285,415.62,325.5,401.835,325.5z"/>
<path d="M401.835,355.5c-3.416,0-6.756-0.329-10-0.928v10.157c3.26,0.505,6.6,0.771,10,0.771c16.875,0,32.264-6.467,43.83-17.048
	c-1.832-2.905-3.506-5.92-5.004-9.036C430.706,349.35,416.976,355.5,401.835,355.5z"/>
<path d="M466.835,300.5c0-3.4-0.266-6.739-0.771-10h-10.156c0.598,3.245,0.928,6.584,0.928,10c0,15.141-6.15,28.871-16.084,38.827
	c3.117,1.497,6.131,3.171,9.035,5.004C460.368,332.765,466.835,317.374,466.835,300.5z"/>
<path d="M476.927,340.271c-0.6,1.126-1.227,2.234-1.873,3.329c1.059-0.645,2.133-1.265,3.217-1.866
	C477.815,341.252,477.366,340.767,476.927,340.271z"/>
<path d="M444.935,373.72c-1.096,0.646-2.203,1.272-3.33,1.871c0.496,0.44,0.982,0.89,1.465,1.346
	C443.671,375.851,444.29,374.777,444.935,373.72z"/>
<path d="M391.835,384.892v10.083c3.287,0.345,6.623,0.525,10,0.525c12.689,0,24.801-2.507,35.877-7.042
	c1.52-3.983,3.313-7.832,5.357-11.521c-0.482-0.456-0.969-0.905-1.465-1.346c-11.875,6.315-25.408,9.909-39.77,9.909
	C398.45,385.5,395.118,385.278,391.835,384.892z"/>
<path d="M472.138,364.33c4.688-5.16,8.814-10.839,12.291-16.935c-2.184-1.743-4.238-3.636-6.158-5.662
	c-1.084,0.602-2.158,1.222-3.217,1.866c-2.789,4.721-6.02,9.147-9.637,13.227C467.794,359.199,470.036,361.705,472.138,364.33z"/>
<path d="M448.729,383.094c6.096-3.476,11.775-7.603,16.936-12.292c-2.625-2.101-5.131-4.343-7.504-6.72
	c-4.08,3.618-8.506,6.848-13.227,9.638c-0.645,1.058-1.264,2.131-1.865,3.217C445.095,378.855,446.987,380.911,448.729,383.094z"/>
<path d="M443.069,376.937c-2.045,3.689-3.838,7.538-5.357,11.521c3.801-1.556,7.48-3.349,11.018-5.364
	C446.987,380.911,445.095,378.855,443.069,376.937z"/>
<path d="M489.792,336.378c4.535-11.076,7.043-23.188,7.043-35.878c0-3.377-0.182-6.713-0.525-10h-10.084
	c0.387,3.282,0.609,6.615,0.609,10c0,14.361-3.594,27.895-9.908,39.771c0.439,0.496,0.889,0.981,1.344,1.463
	C481.96,339.688,485.81,337.896,489.792,336.378z"/>
<path d="M478.271,341.733c1.92,2.026,3.975,3.919,6.158,5.662c2.016-3.537,3.809-7.217,5.363-11.018
	C485.81,337.896,481.96,339.688,478.271,341.733z"/>
<path d="M458.161,364.082c2.373,2.377,4.879,4.619,7.504,6.72c2.258-2.053,4.418-4.213,6.473-6.472
	c-2.102-2.625-4.344-5.131-6.721-7.504C463.146,359.388,460.722,361.811,458.161,364.082z"/>
<path d="M440.661,339.416c1.498,3.116,3.172,6.131,5.004,9.036c1.434-1.313,2.811-2.688,4.121-4.121
	c-2.904-1.833-5.918-3.507-9.035-5.004C440.722,339.356,440.692,339.387,440.661,339.416z"/>
<path d="M426.835,420.5c0,3.555-0.752,6.936-2.094,10h10.631c0.945-3.171,1.463-6.525,1.463-10c0-19.299-15.701-35-35-35
	c-3.475,0-6.83,0.516-10,1.463v10.631c3.064-1.344,6.445-2.094,10-2.094C415.62,395.5,426.835,406.715,426.835,420.5z"/>
<path d="M456.835,420.5c0,3.416-0.33,6.755-0.928,10h10.156c0.506-3.261,0.771-6.6,0.771-10c0-16.875-6.467-32.265-17.049-43.831
	c-2.904,1.833-5.92,3.507-9.035,5.004C450.685,391.629,456.835,405.359,456.835,420.5z"/>
<path d="M401.835,355.5c-3.4,0-6.74,0.266-10,0.771v10.157c3.244-0.599,6.584-0.928,10-0.928c15.141,0,28.871,6.15,38.826,16.084
	c1.498-3.117,3.172-6.131,5.004-9.036C434.099,361.967,418.708,355.5,401.835,355.5z"/>
<path d="M441.604,345.408c1.127,0.6,2.234,1.226,3.33,1.872c-0.645-1.058-1.266-2.132-1.867-3.217
	C442.587,344.519,442.101,344.969,441.604,345.408z"/>
<path d="M475.054,377.4c0.646,1.096,1.273,2.203,1.871,3.329c0.441-0.496,0.891-0.981,1.346-1.464
	C477.185,378.664,476.112,378.045,475.054,377.4z"/>
<path d="M486.226,430.5h10.084c0.344-3.287,0.525-6.623,0.525-10c0-12.689-2.508-24.802-7.043-35.878
	c-3.982-1.519-7.832-3.312-11.521-5.356c-0.455,0.482-0.904,0.968-1.346,1.464c6.316,11.876,9.91,25.409,9.91,39.771
	C486.835,423.885,486.612,427.217,486.226,430.5z"/>
<path d="M465.665,350.197c-5.16-4.688-10.84-8.815-16.936-12.291c-1.742,2.183-3.635,4.238-5.662,6.157
	c0.602,1.085,1.223,2.159,1.867,3.217c4.721,2.79,9.146,6.02,13.227,9.638C460.534,354.541,463.04,352.299,465.665,350.197z"/>
<path d="M484.429,373.604c-3.477-6.096-7.604-11.774-12.293-16.935c-2.1,2.625-4.342,5.131-6.719,7.504
	c3.617,4.079,6.848,8.506,9.637,13.227c1.059,0.645,2.131,1.264,3.217,1.865C480.19,377.24,482.245,375.348,484.429,373.604z"/>
<path d="M478.271,379.266c3.689,2.045,7.539,3.838,11.521,5.356c-1.555-3.801-3.348-7.48-5.363-11.018
	C482.245,375.348,480.19,377.24,478.271,379.266z"/>
<path d="M437.712,332.542c-11.076-4.535-23.188-7.042-35.877-7.042c-3.377,0-6.713,0.181-10,0.525v10.083
	c3.281-0.387,6.615-0.608,10-0.608c14.361,0,27.895,3.594,39.77,9.908c0.496-0.439,0.982-0.89,1.463-1.345
	C441.022,340.374,439.231,336.525,437.712,332.542z"/>
<path d="M443.067,344.063c2.027-1.919,3.92-3.975,5.662-6.157c-3.537-2.016-7.217-3.809-11.018-5.364
	C439.231,336.525,441.022,340.374,443.067,344.063z"/>
<path d="M465.417,364.174c2.377-2.373,4.619-4.879,6.719-7.504c-2.053-2.259-4.213-4.419-6.471-6.473
	c-2.625,2.102-5.131,4.344-7.504,6.721C460.722,359.189,463.146,361.612,465.417,364.174z"/>
<path d="M440.751,381.673c3.115-1.497,6.131-3.171,9.035-5.004c-1.313-1.434-2.688-2.81-4.121-4.121
	c-1.832,2.905-3.506,5.919-5.004,9.036C440.69,381.613,440.722,381.643,440.751,381.673z"/>
<path d="M521.835,395.5c3.555,0,6.936,0.751,10,2.094v-10.631c-3.172-0.946-6.525-1.463-10-1.463c-19.299,0-35,15.701-35,35
	c0,3.475,0.516,6.829,1.463,10h10.631c-1.344-3.064-2.094-6.445-2.094-10C496.835,406.715,508.05,395.5,521.835,395.5z"/>
<path d="M521.835,365.5c3.416,0,6.754,0.329,10,0.928v-10.157c-3.262-0.505-6.6-0.771-10-0.771
	c-16.875,0-32.266,6.467-43.832,17.048c1.834,2.905,3.508,5.92,5.004,9.036C492.964,371.65,506.694,365.5,521.835,365.5z"/>
<path d="M456.835,420.5c0,3.4,0.266,6.739,0.77,10h10.158c-0.6-3.245-0.928-6.584-0.928-10c0-15.141,6.15-28.871,16.084-38.827
	c-3.117-1.497-6.131-3.171-9.037-5.004C463.302,388.235,456.835,403.626,456.835,420.5z"/>
<path d="M446.743,380.729c0.6-1.126,1.225-2.234,1.871-3.329c-1.057,0.645-2.131,1.265-3.217,1.866
	C445.853,379.748,446.304,380.233,446.743,380.729z"/>
<path d="M478.735,347.28c1.096-0.646,2.203-1.272,3.328-1.871c-0.496-0.44-0.98-0.89-1.463-1.346
	C479.999,345.149,479.38,346.223,478.735,347.28z"/>
<path d="M531.835,336.108v-10.083c-3.287-0.345-6.623-0.525-10-0.525c-12.689,0-24.803,2.507-35.879,7.042
	c-1.518,3.983-3.311,7.832-5.355,11.521c0.482,0.456,0.967,0.905,1.463,1.346c11.877-6.315,25.41-9.909,39.771-9.909
	C525.22,335.5,528.552,335.722,531.835,336.108z"/>
<path d="M451.532,356.67c-4.689,5.16-8.816,10.839-12.291,16.935c2.182,1.743,4.238,3.636,6.156,5.662
	c1.086-0.602,2.16-1.222,3.217-1.866c2.791-4.721,6.02-9.147,9.639-13.227C455.876,361.801,453.634,359.295,451.532,356.67z"/>
<path d="M474.938,337.906c-6.096,3.476-11.773,7.603-16.934,12.292c2.625,2.101,5.131,4.343,7.504,6.72
	c4.078-3.618,8.506-6.848,13.227-9.638c0.645-1.058,1.264-2.131,1.865-3.217C478.575,342.145,476.683,340.089,474.938,337.906z"/>
<path d="M480.601,344.063c2.045-3.689,3.838-7.538,5.355-11.521c-3.801,1.556-7.48,3.349-11.018,5.364
	C476.683,340.089,478.575,342.145,480.601,344.063z"/>
<path d="M433.876,384.622c-4.535,11.076-7.041,23.188-7.041,35.878c0,3.377,0.18,6.713,0.525,10h10.082
	c-0.387-3.282-0.607-6.615-0.607-10c0-14.361,3.594-27.895,9.908-39.771c-0.439-0.496-0.891-0.981-1.346-1.463
	C441.708,381.312,437.86,383.104,433.876,384.622z"/>
<path d="M445.397,379.267c-1.918-2.026-3.975-3.919-6.156-5.662c-2.016,3.537-3.809,7.217-5.365,11.018
	C437.86,383.104,441.708,381.312,445.397,379.267z"/>
<path d="M465.509,356.918c-2.373-2.377-4.879-4.619-7.504-6.72c-2.26,2.053-4.42,4.213-6.473,6.472
	c2.102,2.625,4.344,5.131,6.721,7.504C460.524,361.612,462.946,359.189,465.509,356.918z"/>
<path d="M483.007,381.584c-1.496-3.116-3.17-6.131-5.004-9.036c-1.434,1.313-2.809,2.688-4.121,4.121
	c2.906,1.833,5.92,3.507,9.037,5.004C482.948,381.644,482.978,381.613,483.007,381.584z"/>
<path d="M496.835,300.5c0-3.555,0.75-6.936,2.094-10h-10.631c-0.947,3.171-1.463,6.525-1.463,10c0,19.299,15.701,35,35,35
	c3.475,0,6.828-0.516,10-1.463v-10.631c-3.064,1.344-6.445,2.094-10,2.094C508.05,325.5,496.835,314.285,496.835,300.5z"/>
<path d="M466.835,300.5c0-3.416,0.328-6.755,0.928-10h-10.158c-0.504,3.261-0.77,6.6-0.77,10c0,16.875,6.467,32.265,17.047,43.831
	c2.906-1.833,5.92-3.507,9.037-5.004C472.985,329.371,466.835,315.641,466.835,300.5z"/>
<path d="M521.835,365.5c3.4,0,6.738-0.266,10-0.771v-10.157c-3.246,0.599-6.584,0.928-10,0.928c-15.141,0-28.871-6.15-38.828-16.084
	c-1.496,3.117-3.17,6.131-5.004,9.036C489.569,359.033,504.96,365.5,521.835,365.5z"/>
<path d="M482.063,375.592c-1.125-0.6-2.234-1.226-3.328-1.872c0.645,1.058,1.264,2.132,1.865,3.217
	C481.083,376.481,481.567,376.031,482.063,375.592z"/>
<path d="M448.614,343.6c-0.646-1.096-1.271-2.203-1.871-3.329c-0.439,0.496-0.889,0.981-1.346,1.464
	C446.483,342.336,447.558,342.955,448.614,343.6z"/>
<path d="M437.442,290.5H427.36c-0.346,3.287-0.525,6.623-0.525,10c0,12.689,2.506,24.802,7.041,35.878
	c3.984,1.519,7.832,3.312,11.521,5.356c0.457-0.482,0.906-0.968,1.346-1.464c-6.314-11.876-9.908-25.409-9.908-39.771
	C436.835,297.115,437.056,293.783,437.442,290.5z"/>
<path d="M458.005,370.803c5.16,4.688,10.838,8.815,16.934,12.291c1.744-2.183,3.637-4.238,5.662-6.157
	c-0.602-1.085-1.221-2.159-1.865-3.217c-4.721-2.79-9.148-6.02-13.227-9.638C463.136,366.459,460.63,368.701,458.005,370.803z"/>
<path d="M439.241,347.396c3.475,6.096,7.602,11.774,12.291,16.935c2.102-2.625,4.344-5.131,6.721-7.504
	c-3.619-4.079-6.848-8.506-9.639-13.227c-1.057-0.645-2.131-1.264-3.217-1.865C443.479,343.76,441.423,345.652,439.241,347.396z"/>
<path d="M445.397,341.734c-3.689-2.045-7.537-3.838-11.521-5.356c1.557,3.801,3.35,7.48,5.365,11.018
	C441.423,345.652,443.479,343.76,445.397,341.734z"/>
<path d="M485.956,388.458c11.076,4.535,23.189,7.042,35.879,7.042c3.377,0,6.713-0.181,10-0.525v-10.083
	c-3.283,0.387-6.615,0.608-10,0.608c-14.361,0-27.895-3.594-39.771-9.908c-0.496,0.439-0.98,0.89-1.463,1.345
	C482.646,380.626,484.438,384.475,485.956,388.458z"/>
<path d="M480.601,376.937c-2.025,1.919-3.918,3.975-5.662,6.157c3.537,2.016,7.217,3.809,11.018,5.364
	C484.438,384.475,482.646,380.626,480.601,376.937z"/>
<path d="M458.253,356.826c-2.377,2.373-4.619,4.879-6.721,7.504c2.053,2.259,4.213,4.419,6.473,6.473
	c2.625-2.102,5.131-4.344,7.504-6.721C462.946,361.811,460.524,359.388,458.253,356.826z"/>
<path d="M482.919,339.327c-3.117,1.497-6.131,3.171-9.037,5.004c1.313,1.434,2.688,2.81,4.121,4.121
	c1.834-2.905,3.508-5.919,5.004-9.036C482.978,339.387,482.948,339.357,482.919,339.327z"/>
<g>
	<path d="M235.5,100.5c0-3.475-0.516-6.829-1.463-10h-10.631c1.344,3.064,2.094,6.445,2.094,10c0,13.785-11.215,25-25,25
		c-3.555,0-6.936-0.751-10-2.094v10.631c3.171,0.946,6.525,1.463,10,1.463C219.799,135.5,235.5,119.799,235.5,100.5z"/>
	<path d="M244.331,148.452c1.434-1.313,2.81-2.688,4.121-4.121c10.581-11.566,17.048-26.957,17.048-43.831
		c0-3.4-0.266-6.739-0.771-10h-10.157c0.599,3.245,0.928,6.584,0.928,10c0,15.141-6.15,28.871-16.084,38.827
		c-0.029,0.029-0.059,0.06-0.089,0.089c-9.956,9.934-23.687,16.084-38.827,16.084c-3.416,0-6.755-0.329-10-0.928v10.157
		c3.261,0.505,6.6,0.771,10,0.771C217.375,165.5,232.765,159.033,244.331,148.452z"/>
	<path d="M293.007,122.121c6.415,8.139,16.351,13.379,27.493,13.379c3.475,0,6.829-0.516,10-1.463v-10.631
		c-3.064,1.344-6.445,2.094-10,2.094c-13.785,0-25-11.215-25-25c0-3.555,0.751-6.936,2.094-10h-2.619h-8.012h-2.071
		c0.387,3.282,0.608,6.615,0.608,10c0,14.361-3.594,27.895-9.908,39.771c-0.6,1.126-1.226,2.234-1.872,3.329
		c-2.79,4.721-6.02,9.147-9.638,13.227c-2.271,2.562-4.694,4.984-7.256,7.256c-4.079,3.618-8.506,6.848-13.227,9.638
		c-1.096,0.646-2.203,1.272-3.329,1.871c-11.876,6.315-25.409,9.909-39.771,9.909c-3.385,0-6.717-0.222-10-0.608v2.071v8.012v2.619
		c3.064-1.344,6.445-2.094,10-2.094c13.785,0,25,11.215,25,25c0,3.555-0.751,6.936-2.094,10h2.619h8.012h2.071
		c-0.387-3.282-0.608-6.615-0.608-10c0-12.521,2.733-24.413,7.619-35.127c1.445-0.728,2.875-1.48,4.276-2.279
		c4.623-2.636,9.005-5.648,13.104-8.995c2.812,2.296,5.758,4.433,8.822,6.399c-8.648,11.039-13.822,24.924-13.822,40.002
		c0,3.4,0.266,6.739,0.771,10h10.157c-0.599-3.245-0.928-6.584-0.928-10c0-13.289,4.74-25.49,12.615-35.008
		c2.127,1.064,4.294,2.06,6.507,2.966c4.585,1.877,9.35,3.401,14.257,4.549c-8.139,6.415-13.379,16.351-13.379,27.493
		c0,3.475,0.516,6.829,1.463,10h10.631c-1.344-3.064-2.094-6.445-2.094-10c0-13.785,11.215-25,25-25c3.555,0,6.936,0.751,10,2.094
		v-2.619v-8.012v-2.071c-3.282,0.387-6.615,0.608-10,0.608c-14.361,0-27.895-3.594-39.771-9.908c-1.126-0.6-2.234-1.226-3.329-1.872
		c-3.283-1.94-6.414-4.106-9.396-6.456c0.95-0.96,1.889-1.934,2.798-2.934c3.571-3.931,6.814-8.165,9.695-12.652
		c11.039,8.648,24.924,13.822,40.002,13.822c3.4,0,6.739-0.266,10-0.771v-10.157c-3.245,0.599-6.584,0.928-10,0.928
		c-13.289,0-25.49-4.74-35.008-12.615c1.064-2.127,2.06-4.294,2.966-6.507C290.335,131.793,291.859,127.028,293.007,122.121z
		 M222.121,193.007c2.772-0.648,5.499-1.415,8.174-2.302c-0.887,2.675-1.653,5.401-2.302,8.174
		C226.273,196.698,224.302,194.727,222.121,193.007z"/>
</g>
<path d="M401.835,125.5c-3.555,0-6.936-0.751-10-2.094v10.631c3.17,0.946,6.525,1.463,10,1.463c19.299,0,35-15.701,35-35
	c0-3.475-0.516-6.829-1.463-10h-10.631c1.344,3.064,2.094,6.445,2.094,10C426.835,114.285,415.62,125.5,401.835,125.5z"/>
<path d="M401.835,155.5c-3.416,0-6.756-0.329-10-0.928v10.157c3.26,0.505,6.6,0.771,10,0.771c16.875,0,32.264-6.467,43.83-17.048
	c-1.832-2.905-3.506-5.92-5.004-9.036C430.706,149.35,416.976,155.5,401.835,155.5z"/>
<path d="M466.835,100.5c0-3.4-0.266-6.739-0.771-10h-10.156c0.598,3.245,0.928,6.584,0.928,10c0,15.141-6.15,28.871-16.084,38.827
	c3.117,1.497,6.131,3.171,9.035,5.004C460.368,132.765,466.835,117.374,466.835,100.5z"/>
<path d="M476.927,140.271c-0.6,1.126-1.227,2.234-1.873,3.329c1.059-0.645,2.133-1.265,3.217-1.866
	C477.815,141.252,477.366,140.767,476.927,140.271z"/>
<path d="M444.935,173.72c-1.096,0.646-2.203,1.272-3.33,1.871c0.496,0.44,0.982,0.89,1.465,1.346
	C443.671,175.851,444.29,174.777,444.935,173.72z"/>
<path d="M391.835,184.892v10.083c3.287,0.345,6.623,0.525,10,0.525c12.689,0,24.801-2.507,35.877-7.042
	c1.52-3.983,3.313-7.832,5.357-11.521c-0.482-0.456-0.969-0.905-1.465-1.346c-11.875,6.315-25.408,9.909-39.77,9.909
	C398.45,185.5,395.118,185.278,391.835,184.892z"/>
<path d="M472.138,164.33c4.688-5.16,8.814-10.839,12.291-16.935c-2.184-1.743-4.238-3.636-6.158-5.662
	c-1.084,0.602-2.158,1.222-3.217,1.866c-2.789,4.721-6.02,9.147-9.637,13.227C467.794,159.199,470.036,161.705,472.138,164.33z"/>
<path d="M448.729,183.094c6.096-3.476,11.775-7.603,16.936-12.292c-2.625-2.101-5.131-4.343-7.504-6.72
	c-4.08,3.618-8.506,6.848-13.227,9.638c-0.645,1.058-1.264,2.131-1.865,3.217C445.095,178.855,446.987,180.911,448.729,183.094z"/>
<path d="M443.069,176.937c-2.045,3.689-3.838,7.538-5.357,11.521c3.801-1.556,7.48-3.349,11.018-5.364
	C446.987,180.911,445.095,178.855,443.069,176.937z"/>
<path d="M489.792,136.378c4.535-11.076,7.043-23.188,7.043-35.878c0-3.377-0.182-6.713-0.525-10h-10.084
	c0.387,3.282,0.609,6.615,0.609,10c0,14.361-3.594,27.895-9.908,39.771c0.439,0.496,0.889,0.981,1.344,1.463
	C481.96,139.688,485.81,137.896,489.792,136.378z"/>
<path d="M478.271,141.733c1.92,2.026,3.975,3.919,6.158,5.662c2.016-3.537,3.809-7.217,5.363-11.018
	C485.81,137.896,481.96,139.688,478.271,141.733z"/>
<path d="M458.161,164.082c2.373,2.377,4.879,4.619,7.504,6.72c2.258-2.053,4.418-4.213,6.473-6.472
	c-2.102-2.625-4.344-5.131-6.721-7.504C463.146,159.388,460.722,161.811,458.161,164.082z"/>
<path d="M440.661,139.416c1.498,3.116,3.172,6.131,5.004,9.036c1.434-1.313,2.811-2.688,4.121-4.121
	c-2.904-1.833-5.918-3.507-9.035-5.004C440.722,139.356,440.692,139.387,440.661,139.416z"/>
<path d="M426.835,220.5c0,3.555-0.752,6.936-2.094,10h10.631c0.945-3.171,1.463-6.525,1.463-10c0-19.299-15.701-35-35-35
	c-3.475,0-6.83,0.516-10,1.463v10.631c3.064-1.344,6.445-2.094,10-2.094C415.62,195.5,426.835,206.715,426.835,220.5z"/>
<path d="M456.835,220.5c0,3.416-0.33,6.755-0.928,10h10.156c0.506-3.261,0.771-6.6,0.771-10c0-16.875-6.467-32.265-17.049-43.831
	c-2.904,1.833-5.92,3.507-9.035,5.004C450.685,191.629,456.835,205.359,456.835,220.5z"/>
<path d="M441.604,145.408c1.127,0.6,2.234,1.226,3.33,1.872c-0.645-1.058-1.266-2.132-1.867-3.217
	C442.587,144.519,442.101,144.969,441.604,145.408z"/>
<path d="M475.054,177.4c0.646,1.096,1.273,2.203,1.871,3.329c0.441-0.496,0.891-0.981,1.346-1.464
	C477.185,178.664,476.112,178.045,475.054,177.4z"/>
<path d="M486.226,230.5h10.084c0.344-3.287,0.525-6.623,0.525-10c0-12.689-2.508-24.802-7.043-35.878
	c-3.982-1.519-7.832-3.312-11.521-5.356c-0.455,0.482-0.904,0.968-1.346,1.464c6.316,11.876,9.91,25.409,9.91,39.771
	C486.835,223.885,486.612,227.217,486.226,230.5z"/>
<path d="M521.835,195.5c3.555,0,6.936,0.751,10,2.094v-10.631c-3.172-0.946-6.525-1.463-10-1.463c-19.299,0-35,15.701-35,35
	c0,3.475,0.516,6.829,1.463,10h10.631c-1.344-3.064-2.094-6.445-2.094-10C496.835,206.715,508.05,195.5,521.835,195.5z"/>
<path d="M446.743,180.729c0.6-1.126,1.225-2.234,1.871-3.329c-1.057,0.645-2.131,1.265-3.217,1.866
	C445.853,179.748,446.304,180.233,446.743,180.729z"/>
<path d="M478.735,147.28c1.096-0.646,2.203-1.272,3.328-1.871c-0.496-0.44-0.98-0.89-1.463-1.346
	C479.999,145.149,479.38,146.223,478.735,147.28z"/>
<path d="M496.835,100.5c0-3.555,0.75-6.936,2.094-10h-10.631c-0.947,3.171-1.463,6.525-1.463,10c0,19.299,15.701,35,35,35
	c3.475,0,6.828-0.516,10-1.463v-10.631c-3.064,1.344-6.445,2.094-10,2.094C508.05,125.5,496.835,114.285,496.835,100.5z"/>
<path d="M521.835,165.5c3.4,0,6.738-0.266,10-0.771v-10.157c-3.246,0.599-6.584,0.928-10,0.928c-15.141,0-28.871-6.15-38.828-16.084
	c-1.496,3.117-3.17,6.131-5.004,9.036C489.569,159.033,504.96,165.5,521.835,165.5z"/>
<path d="M482.063,175.592c-1.125-0.6-2.234-1.226-3.328-1.872c0.645,1.058,1.264,2.132,1.865,3.217
	C481.083,176.481,481.567,176.031,482.063,175.592z"/>
<path d="M448.614,143.6c-0.646-1.096-1.271-2.203-1.871-3.329c-0.439,0.496-0.889,0.981-1.346,1.464
	C446.483,142.336,447.558,142.955,448.614,143.6z"/>
<path d="M458.005,170.803c5.16,4.688,10.838,8.815,16.934,12.291c1.744-2.183,3.637-4.238,5.662-6.157
	c-0.602-1.085-1.221-2.159-1.865-3.217c-4.721-2.79-9.148-6.02-13.227-9.638C463.136,166.459,460.63,168.701,458.005,170.803z"/>
<path d="M485.956,188.458c11.076,4.535,23.189,7.042,35.879,7.042c3.377,0,6.713-0.181,10-0.525v-10.083
	c-3.283,0.387-6.615,0.608-10,0.608c-14.361,0-27.895-3.594-39.771-9.908c-0.496,0.439-0.98,0.89-1.463,1.345
	C482.646,180.626,484.438,184.475,485.956,188.458z"/>
<path d="M480.601,176.937c-2.025,1.919-3.918,3.975-5.662,6.157c3.537,2.016,7.217,3.809,11.018,5.364
	C484.438,184.475,482.646,180.626,480.601,176.937z"/>
</svg>
